<svg viewBox="0 0 32 32" fill="none" xmlns="http://www.w3.org/2000/svg">
    <path fill-rule="evenodd" clip-rule="evenodd"
        d="M16 26.3022C21.2467 26.3022 25.5 22.049 25.5 16.8022C25.5 11.5555 21.2467 7.30225 16 7.30225C10.7533 7.30225 6.5 11.5555 6.5 16.8022C6.5 22.049 10.7533 26.3022 16 26.3022ZM16.6668 11.6872C16.6668 11.319 16.3683 11.0205 16.0001 11.0205C15.632 11.0205 15.3335 11.319 15.3335 11.6872V16.1358H10.8848C10.5166 16.1358 10.2181 16.4343 10.2181 16.8025C10.2181 17.1707 10.5166 17.4691 10.8848 17.4691L15.3335 17.4691V21.9179C15.3335 22.2861 15.632 22.5846 16.0001 22.5846C16.3683 22.5846 16.6668 22.2861 16.6668 21.9179V17.4691H21.1155C21.4837 17.4691 21.7822 17.1707 21.7822 16.8025C21.7822 16.4343 21.4837 16.1358 21.1155 16.1358L16.6668 16.1358V11.6872Z"
        fill="currentColor" fill-opacity="0.4" />
</svg>
    