<svg viewBox="0 0 41 40" fill="none" xmlns="http://www.w3.org/2000/svg">
    <path
        d="M32.7212 5H28.9712V3.75C28.9712 3.41848 28.8395 3.10054 28.6051 2.86612C28.3707 2.6317 28.0527 2.5 27.7212 2.5C27.3897 2.5 27.0717 2.6317 26.8373 2.86612C26.6029 3.10054 26.4712 3.41848 26.4712 3.75V5H13.9712V3.75C13.9712 3.41848 13.8395 3.10054 13.6051 2.86612C13.3707 2.6317 13.0527 2.5 12.7212 2.5C12.3897 2.5 12.0717 2.6317 11.8373 2.86612C11.6029 3.10054 11.4712 3.41848 11.4712 3.75V5H7.72119C7.05815 5 6.42227 5.26339 5.95342 5.73223C5.48458 6.20107 5.22119 6.83696 5.22119 7.5V32.5C5.22119 33.163 5.48458 33.7989 5.95342 34.2678C6.42227 34.7366 7.05815 35 7.72119 35H32.7212C33.3842 35 34.0201 34.7366 34.489 34.2678C34.9578 33.7989 35.2212 33.163 35.2212 32.5V7.5C35.2212 6.83696 34.9578 6.20107 34.489 5.73223C34.0201 5.26339 33.3842 5 32.7212 5ZM11.4712 7.5V8.75C11.4712 9.08152 11.6029 9.39946 11.8373 9.63388C12.0717 9.8683 12.3897 10 12.7212 10C13.0527 10 13.3707 9.8683 13.6051 9.63388C13.8395 9.39946 13.9712 9.08152 13.9712 8.75V7.5H26.4712V8.75C26.4712 9.08152 26.6029 9.39946 26.8373 9.63388C27.0717 9.8683 27.3897 10 27.7212 10C28.0527 10 28.3707 9.8683 28.6051 9.63388C28.8395 9.39946 28.9712 9.08152 28.9712 8.75V7.5H32.7212V12.5H7.72119V7.5H11.4712ZM32.7212 32.5H7.72119V15H32.7212V32.5Z"
        fill="currentColor" />
</svg>
    