<svg viewBox="0 0 33 32" fill="none" xmlns="http://www.w3.org/2000/svg">
    <path fill-rule="evenodd" clip-rule="evenodd"
        d="M13.7352 23.8177L14.3551 25.2119C14.7316 26.0597 15.5723 26.606 16.5 26.606V26.606C17.4277 26.606 18.2684 26.0597 18.6449 25.2119L19.2648 23.8177C19.4854 23.323 19.8566 22.9106 20.3254 22.6392V22.6392C20.7972 22.3671 21.3429 22.2512 21.8846 22.308L23.4013 22.4695C24.3237 22.5671 25.217 22.1121 25.6805 21.3087V21.3087C26.1446 20.5057 26.092 19.5047 25.5461 18.7549L24.6481 17.521C24.3284 17.0784 24.1575 16.5456 24.1602 15.9995V15.9995C24.1601 15.455 24.3326 14.9244 24.6528 14.484L25.5509 13.2501C26.0967 12.5003 26.1493 11.4993 25.6852 10.6963V10.6963C25.2217 9.89288 24.3284 9.43792 23.406 9.53549L21.8893 9.69694C21.3476 9.75382 20.8019 9.63791 20.3301 9.36578V9.36578C19.8604 9.09287 19.4891 8.67827 19.2695 8.18139L18.6449 6.78723C18.2684 5.93936 17.4277 5.39307 16.5 5.39307V5.39307C15.5723 5.39307 14.7316 5.93936 14.3551 6.78723L13.7352 8.18139C13.5156 8.67827 13.1443 9.09287 12.6746 9.36578V9.36578C12.2028 9.63791 11.6571 9.75382 11.1154 9.69694L9.594 9.53549C8.67161 9.43792 7.77831 9.89288 7.31479 10.6963V10.6963C6.85067 11.4993 6.90333 12.5003 7.44914 13.2501L8.34715 14.484C8.66741 14.9244 8.83987 15.455 8.83977 15.9995V15.9995C8.83987 16.5441 8.66741 17.0747 8.34715 17.5151L7.44914 18.749C6.90333 19.4988 6.85067 20.4998 7.31479 21.3028V21.3028C7.77874 22.1057 8.67172 22.5605 9.594 22.4636L11.1107 22.3021C11.6524 22.2453 12.1981 22.3612 12.6699 22.6333V22.6333C13.1414 22.9054 13.5144 23.3201 13.7352 23.8177V23.8177Z"
        stroke="currentColor" stroke-width="1.2" />
    <circle cx="16.5003" cy="15.9996" r="3.11948" stroke="currentColor" stroke-width="1.2"
        stroke-linecap="round" stroke-linejoin="round" />
</svg>
    