<svg width="18" height="18" viewBox="0 0 18 18" fill="none" xmlns="http://www.w3.org/2000/svg">
<path fill-rule="evenodd" clip-rule="evenodd" d="M10.5 7.875V5.625C10.5 5.41789 10.6679 5.25 10.875 5.25H12.375C12.5821 5.25 12.75 5.41789 12.75 5.625V12.375C12.75 12.5821 12.5821 12.75 12.375 12.75H10.875C10.6679 12.75 10.5 12.5821 10.5 12.375V10.125H7.5V12.375C7.5 12.5821 7.33211 12.75 7.125 12.75H5.625C5.41789 12.75 5.25 12.5821 5.25 12.375V5.625C5.25 5.41789 5.41789 5.25 5.625 5.25H7.125C7.33211 5.25 7.5 5.41789 7.5 5.625V7.875H10.5Z" fill="#CAFC66"/>
<rect x="2.24219" y="2.25" width="13.5" height="13.5" rx="3.75" stroke="#CAFC66" stroke-width="1.125" stroke-linecap="round" stroke-linejoin="round"/>
</svg>
