<svg viewBox="0 0 314 85" fill="none" xmlns="http://www.w3.org/2000/svg">
    <g clip-path="url(#clip0_1_2077)">
        <path fill-rule="evenodd" clip-rule="evenodd"
            d="M23.9063 39.9982C24.2236 39.998 24.3825 39.6145 24.1582 39.39L8.67852 23.8987C8.53947 23.7595 8.53951 23.534 8.67861 23.3949L11.7368 20.3367C11.8759 20.1976 12.1015 20.1976 12.2406 20.3366L27.7322 35.8161C27.9567 36.0404 28.3402 35.8815 28.3404 35.5642L28.3488 13.6645C28.3488 13.4678 28.5083 13.3083 28.705 13.3083H33.03C33.2268 13.3083 33.3863 13.4678 33.3863 13.6645L33.3947 35.5642C33.3948 35.8815 33.7784 36.0404 34.0029 35.8161L49.4945 20.3366C49.6336 20.1976 49.8591 20.1976 49.9982 20.3367L53.0565 23.3949C53.1956 23.534 53.1956 23.7595 53.0566 23.8987L37.5769 39.39C37.3526 39.6145 37.5115 39.998 37.8287 39.9982L59.7288 40.0066C59.9255 40.0066 60.0849 40.1661 60.0849 40.3628V44.6878C60.0849 44.8845 59.9255 45.044 59.7288 45.0441L37.8287 45.0525C37.5115 45.0526 37.3526 45.4361 37.5769 45.6606L53.0566 61.1519C53.1956 61.2911 53.1956 61.5166 53.0565 61.6557L49.9982 64.7139C49.8591 64.853 49.6336 64.8531 49.4945 64.714L34.0029 49.2345C33.7784 49.0102 33.3948 49.1691 33.3947 49.4864L33.3863 71.3861C33.3863 71.5828 33.2268 71.7423 33.03 71.7423H28.705C28.5083 71.7423 28.3488 71.5828 28.3488 71.3861L28.3404 49.4864C28.3402 49.1691 27.9567 49.0102 27.7322 49.2345L12.2406 64.714C12.1015 64.8531 11.8759 64.853 11.7368 64.7139L8.67861 61.6557C8.53951 61.5166 8.53947 61.2911 8.67852 61.1519L24.1582 45.6606C24.3825 45.4361 24.2236 45.0526 23.9063 45.0525L2.0063 45.0441C1.80958 45.044 1.65015 44.8845 1.65015 44.6878V40.3628C1.65015 40.1661 1.80958 40.0066 2.00631 40.0066L23.9063 39.9982Z"
            fill="#D6FE50" />
        <path
            d="M83.7005 67.6252V17.6635H106.045C109.653 17.6635 112.799 18.288 115.482 19.5371C118.165 20.7399 120.247 22.4515 121.727 24.672C123.207 26.8925 123.948 29.4832 123.948 32.4439C123.948 35.3583 123.207 37.9258 121.727 40.1463C120.247 42.3205 118.165 44.0322 115.482 45.2812C112.799 46.484 109.653 47.0854 106.045 47.0854H92.1663V39.2442H105.767C108.311 39.2442 110.254 38.6659 111.596 37.5094C112.984 36.3066 113.678 34.6412 113.678 32.5132C113.678 30.339 113.007 28.6967 111.665 27.5865C110.324 26.4299 108.358 25.8517 105.767 25.8517H94.3868V67.6252H83.7005ZM111.873 67.6252L91.8193 41.6729H103.13L126.307 67.6252H111.873ZM147.103 68.3192C143.217 68.3192 139.794 67.5559 136.833 66.0292C133.919 64.4564 131.629 62.2821 129.963 59.5065C128.344 56.6845 127.535 53.4463 127.535 49.7917C127.535 46.1371 128.344 42.9451 129.963 40.2157C131.629 37.4863 133.919 35.3583 136.833 33.8317C139.794 32.3051 143.217 31.5418 147.103 31.5418C151.035 31.5418 154.459 32.3051 157.373 33.8317C160.334 35.3583 162.624 37.4863 164.243 40.2157C165.862 42.9451 166.671 46.1371 166.671 49.7917C166.671 53.4463 165.839 56.6845 164.173 59.5065C162.554 62.2821 160.264 64.4564 157.304 66.0292C154.389 67.5559 150.989 68.3192 147.103 68.3192ZM147.103 60.131C148.722 60.131 150.179 59.7146 151.475 58.8819C152.816 58.0492 153.88 56.8696 154.667 55.343C155.453 53.7701 155.846 51.8965 155.846 49.7223C155.846 46.5303 154.991 44.0785 153.279 42.3668C151.613 40.6089 149.555 39.7299 147.103 39.7299C144.651 39.7299 142.569 40.6089 140.858 42.3668C139.192 44.1247 138.36 46.5765 138.36 49.7223C138.36 51.8965 138.753 53.7701 139.539 55.343C140.326 56.8696 141.367 58.0492 142.662 58.8819C144.004 59.7146 145.484 60.131 147.103 60.131ZM188.075 68.3192C182.894 68.3192 178.776 67.2783 175.723 65.1965C172.67 63.1148 171.005 60.2466 170.727 56.592H180.025C180.257 58.1649 181.043 59.3677 182.385 60.2004C183.773 60.9868 185.669 61.38 188.075 61.38C190.249 61.38 191.822 61.0793 192.793 60.4779C193.811 59.8303 194.32 58.9282 194.32 57.7717C194.32 56.8927 194.019 56.2219 193.418 55.7593C192.863 55.2505 191.822 54.8341 190.295 54.5103L184.605 53.3306C180.396 52.4517 177.296 51.1332 175.307 49.3753C173.318 47.5712 172.323 45.2581 172.323 42.4362C172.323 39.0129 173.641 36.3529 176.278 34.4562C178.915 32.5132 182.593 31.5418 187.312 31.5418C191.984 31.5418 195.708 32.4901 198.484 34.3868C201.259 36.2372 202.786 38.8279 203.063 42.1586H193.765C193.58 40.9559 192.932 40.0538 191.822 39.4524C190.712 38.8047 189.139 38.4809 187.103 38.4809C185.253 38.4809 183.865 38.7585 182.94 39.3136C182.061 39.8225 181.621 40.5626 181.621 41.5341C181.621 42.3668 181.992 43.0376 182.732 43.5465C183.472 44.0091 184.698 44.4254 186.409 44.7955L192.793 46.1139C196.356 46.8541 199.039 48.2419 200.843 50.2774C202.693 52.2666 203.618 54.6259 203.618 57.3553C203.618 60.8249 202.254 63.5312 199.524 65.4741C196.841 67.3708 193.025 68.3192 188.075 68.3192ZM226.792 68.3885C222.258 68.3885 218.881 67.3014 216.661 65.1272C214.487 62.9066 213.399 59.5527 213.399 55.0654V24.3251L223.808 20.4392V55.4124C223.808 56.9852 224.248 58.1649 225.127 58.9513C226.005 59.7378 227.37 60.131 229.221 60.131C229.915 60.131 230.562 60.0616 231.164 59.9228C231.765 59.784 232.366 59.6221 232.968 59.4371V67.3477C232.366 67.6715 231.511 67.9259 230.4 68.111C229.336 68.296 228.133 68.3885 226.792 68.3885ZM206.807 40.1463V32.2357H232.968V40.1463H206.807ZM256.028 68.3192C252.096 68.3192 248.672 67.5559 245.758 66.0292C242.844 64.4564 240.577 62.2821 238.958 59.5065C237.385 56.7308 236.598 53.5388 236.598 49.9305C236.598 46.2759 237.385 43.0839 238.958 40.3545C240.577 37.5788 242.82 35.4277 245.689 33.9011C248.557 32.3282 251.888 31.5418 255.681 31.5418C259.336 31.5418 262.504 32.2819 265.188 33.7623C267.871 35.2426 269.952 37.3012 271.433 39.9381C272.913 42.575 273.653 45.6745 273.653 49.2365C273.653 49.9767 273.63 50.6706 273.584 51.3183C273.538 51.9197 273.468 52.4979 273.376 53.0531H242.705V46.1833H264.979L263.175 47.4324C263.175 44.5642 262.481 42.4593 261.093 41.1178C259.752 39.7299 257.901 39.036 255.542 39.036C252.813 39.036 250.685 39.9612 249.158 41.8117C247.678 43.6621 246.938 46.4378 246.938 50.1386C246.938 53.747 247.678 56.4301 249.158 58.188C250.685 59.9459 252.952 60.8249 255.958 60.8249C257.624 60.8249 259.058 60.5473 260.261 59.9922C261.464 59.4371 262.366 58.535 262.967 57.2859H272.751C271.595 60.7092 269.605 63.4155 266.784 65.4047C264.008 67.3477 260.423 68.3192 256.028 68.3192ZM280.608 67.6252V32.2357H290.808V40.5626H291.016V67.6252H280.608ZM291.016 49.1672L290.114 40.7708C290.947 37.7639 292.312 35.4739 294.208 33.9011C296.105 32.3282 298.464 31.5418 301.286 31.5418C302.165 31.5418 302.813 31.6343 303.229 31.8193V41.5341C302.998 41.4416 302.674 41.3953 302.258 41.3953C301.841 41.3491 301.332 41.3259 300.731 41.3259C297.4 41.3259 294.948 41.9273 293.376 43.1301C291.803 44.2866 291.016 46.299 291.016 49.1672Z"
            fill="white" />
        <path
            d="M305.628 66.9237V63.5073H306.657V66.9237H305.628ZM304.499 64.1666V63.3275H307.786V64.1666H304.499ZM307.896 66.9237V63.3275H309.414L310.283 66.7939H309.674L310.533 63.3275H312.072V66.9237H311.063V63.5472H311.243L310.463 66.9237H309.454L308.695 63.5672H308.865V66.9237H307.896Z"
            fill="white" />
    </g>
    <defs>
        <clipPath id="clip0_1_2077">
            <rect width="312.261" height="84" fill="white" transform="translate(0.869629 0.625244)" />
        </clipPath>
    </defs>
</svg>
    