<svg viewBox="0 0 21 20" fill="none" xmlns="http://www.w3.org/2000/svg">
    <path fill-rule="evenodd" clip-rule="evenodd"
        d="M20.0306 18.3971L15.3366 13.704C18.1629 10.3108 17.8204 5.29467 14.5591 2.31708C11.2978 -0.660502 6.27134 -0.546267 3.14867 2.5764C0.0259986 5.69908 -0.0882368 10.7256 2.88935 13.9869C5.86693 17.2482 10.883 17.5906 14.2762 14.7643L18.9694 19.4584C19.2624 19.7514 19.7376 19.7514 20.0306 19.4584C20.3237 19.1653 20.3237 18.6902 20.0306 18.3971ZM2.25 8.42773C2.25 4.69981 5.27208 1.67773 9 1.67773C12.7279 1.67773 15.75 4.69981 15.75 8.42773C15.75 12.1557 12.7279 15.1777 9 15.1777C5.27379 15.1736 2.25413 12.1539 2.25 8.42773Z"
        fill="currentColor" />
</svg>
    