<svg width="18" height="19" viewBox="0 0 18 19" fill="none" xmlns="http://www.w3.org/2000/svg">
    <path
            fill-rule="evenodd"
            clip-rule="evenodd"
            d="M4.98359 10.2011L6.58302 10.8088C7.78512 11.2656 8.73437 12.2149 9.19115 13.417L9.7989 15.0164C9.90953 15.3075 10.1886 15.5 10.5 15.5C10.8114 15.5 11.0905 15.3075 11.2011 15.0164L11.8088 13.417C12.2656 12.2149 13.2149 11.2656 14.417 10.8088L16.0164 10.2011C16.3075 10.0905 16.5 9.81143 16.5 9.49999C16.5 9.18856 16.3075 8.90953 16.0164 8.7989L14.417 8.19115C13.2149 7.73437 12.2656 6.78512 11.8088 5.58302L11.2011 3.98359C11.0905 3.69247 10.8114 3.5 10.5 3.5C10.1886 3.5 9.90953 3.69247 9.7989 3.98359L9.19115 5.58302C8.73437 6.78512 7.78513 7.73437 6.58302 8.19115L4.98359 8.7989C4.69247 8.90953 4.5 9.18856 4.5 9.49999C4.5 9.81143 4.69247 10.0905 4.98359 10.2011Z"
            stroke="currentColor"
            stroke-width="1.5"
            stroke-linecap="round"
            stroke-linejoin="round"
    />
    <path
            d="M4.5 16.25V13.25"
            stroke="currentColor"
            stroke-width="1.5"
            stroke-linecap="round"
            stroke-linejoin="round"
    />
    <path
            d="M3 14.75H6"
            stroke="currentColor"
            stroke-width="1.5"
            stroke-linecap="round"
            stroke-linejoin="round"
    />
    <path
            d="M3.75 5.75V2.75"
            stroke="currentColor"
            stroke-width="1.5"
            stroke-linecap="round"
            stroke-linejoin="round"
    />
    <path
            d="M2.25 4.25H5.25"
            stroke="currentColor"
            stroke-width="1.5"
            stroke-linecap="round"
            stroke-linejoin="round"
    />
</svg>
