<svg viewBox="0 0 40 44" fill="none" xmlns="http://www.w3.org/2000/svg">
    <path
        d="M20 13.9992V21.9992M20 29.9992H20.02M2 13.8821V30.1163C2 30.8016 2 31.1442 2.10097 31.4498C2.19029 31.7202 2.33632 31.9683 2.52927 32.1777C2.74737 32.4144 3.0469 32.5808 3.64594 32.9136L18.4459 41.1358C19.0132 41.4509 19.2968 41.6085 19.5971 41.6703C19.8629 41.7249 20.1371 41.7249 20.4029 41.6703C20.7032 41.6085 20.9868 41.4509 21.5541 41.1358L36.3541 32.9136C36.9531 32.5808 37.2526 32.4144 37.4707 32.1777C37.6637 31.9683 37.8097 31.7202 37.899 31.4498C38 31.1442 38 30.8016 38 30.1163V13.8821C38 13.1968 38 12.8542 37.899 12.5486C37.8097 12.2782 37.6637 12.03 37.4707 11.8207C37.2526 11.584 36.9531 11.4176 36.3541 11.0848L21.5541 2.86256C20.9868 2.54744 20.7032 2.38988 20.4029 2.32811C20.1371 2.27344 19.8629 2.27344 19.5971 2.32811C19.2968 2.38988 19.0132 2.54744 18.4459 2.86256L3.64594 11.0848C3.04689 11.4176 2.74737 11.584 2.52927 11.8207C2.33632 12.03 2.19029 12.2782 2.10097 12.5486C2 12.8542 2 13.1968 2 13.8821Z"
        stroke="currentColor" stroke-width="3" stroke-linecap="round" stroke-linejoin="round" />
</svg>