<svg viewBox="0 0 19 18" fill="none" xmlns="http://www.w3.org/2000/svg">
    <g>
        <path
            d="M12.6892 4.5V3.9C12.6892 3.05992 12.6892 2.63988 12.5257 2.31901C12.3819 2.03677 12.1524 1.8073 11.8702 1.66349C11.5493 1.5 11.1293 1.5 10.2892 1.5H9.08921C8.24913 1.5 7.82909 1.5 7.50822 1.66349C7.22598 1.8073 6.99651 2.03677 6.8527 2.31901C6.68921 2.63988 6.68921 3.05992 6.68921 3.9V4.5M8.18921 8.625V12.375M11.1892 8.625V12.375M2.93921 4.5H16.4392M14.9392 4.5V12.9C14.9392 14.1601 14.9392 14.7902 14.694 15.2715C14.4783 15.6948 14.1341 16.039 13.7107 16.2548C13.2294 16.5 12.5993 16.5 11.3392 16.5H8.03921C6.77909 16.5 6.14903 16.5 5.66773 16.2548C5.24437 16.039 4.90016 15.6948 4.68444 15.2715C4.43921 14.7902 4.43921 14.1601 4.43921 12.9V4.5"
            stroke="currentColor" stroke-width="1.2" stroke-linecap="round" stroke-linejoin="round" />
    </g>
</svg>
    