<svg width="23" height="23" viewBox="0 0 23 23" fill="none" xmlns="http://www.w3.org/2000/svg">
    <path fill-rule="evenodd" clip-rule="evenodd" d="M2.1709 5.8125C2.1709 3.74143 3.84984 2.0625 5.92091 2.0625L17.1709 2.06252C19.242 2.06253 20.9209 3.74146 20.9209 5.81252V14.2292C20.9209 16.3002 19.242 17.9792 17.1709 17.9792L6.87282 17.9792H6.62927L6.43218 18.1222L2.76622 20.7839C2.51832 20.9639 2.1709 20.7868 2.1709 20.4804L2.1709 5.8125ZM5.92091 0.5625C3.02141 0.562494 0.670898 2.913 0.670898 5.8125V20.4804C0.670898 22.0122 2.40802 22.8976 3.6475 21.9977L7.11638 19.4792L17.1709 19.4792C20.0704 19.4792 22.4209 17.1287 22.4209 14.2292V5.81252C22.4209 2.91303 20.0704 0.562529 17.1709 0.562523L5.92091 0.5625Z" fill="white"/>
</svg>