<svg viewBox="0 0 24 24" fill="none" xmlns="http://www.w3.org/2000/svg">
    <path fill-rule="evenodd" clip-rule="evenodd"
        d="M10.1705 6H18.0077C19.3793 6 20.4765 7.05 20.4373 8.3625V15.6375C20.4373 16.95 19.3401 18 17.9686 18H10.1705C9.58268 18 8.99489 17.8125 8.52465 17.4L8.40709 17.2875L3.54799 12.825C3.31287 12.6 3.19531 12.3 3.19531 12C3.19531 11.7 3.31287 11.4 3.54799 11.175L8.40709 6.7125L8.52465 6.6C8.99489 6.225 9.58268 6 10.1705 6ZM11.6098 9.31616C11.3702 9.08726 10.9904 9.09593 10.7615 9.33553C10.5326 9.57513 10.5412 9.95493 10.7808 10.1838L12.5472 11.8713L10.7808 13.5588C10.5412 13.7877 10.5326 14.1675 10.7615 14.4071C10.9904 14.6467 11.3702 14.6554 11.6098 14.4265L13.4158 12.7011L15.2217 14.4265C15.4613 14.6554 15.8411 14.6467 16.07 14.4071C16.299 14.1675 16.2903 13.7877 16.0507 13.5588L14.2843 11.8713L16.0507 10.1838C16.2903 9.95494 16.299 9.57514 16.07 9.33553C15.8411 9.09593 15.4613 9.08726 15.2217 9.31617L13.4158 11.0415L11.6098 9.31616Z"
        fill="currentColor" />
</svg>
    