<svg viewBox="0 0 19 19" fill="none" xmlns="http://www.w3.org/2000/svg">
    <path fill-rule="evenodd" clip-rule="evenodd"
        d="M12.9757 6.44948C13.2032 6.20856 13.1923 5.82882 12.9514 5.60129C12.7105 5.37377 12.3308 5.38462 12.1032 5.62553L8.20216 9.75609L6.83872 8.39265C6.6044 8.15833 6.2245 8.15833 5.99019 8.39265C5.75588 8.62696 5.75588 9.00686 5.99019 9.24118L7.37788 10.6289L6.54614 11.5095C6.33896 11.7289 5.98995 11.7289 5.78277 11.5095L2.85066 8.40494C2.62314 8.16403 2.24339 8.15318 2.00248 8.38071C1.76157 8.60823 1.75072 8.98798 1.97825 9.22889L4.91036 12.3335C5.59108 13.0542 6.73783 13.0542 7.41855 12.3335L12.9757 6.44948ZM16.9757 6.44948C17.2032 6.20856 17.1923 5.82882 16.9514 5.60129C16.7105 5.37377 16.3308 5.38462 16.1032 5.62553L10.5231 11.5339C10.32 11.749 9.97935 11.7539 9.77017 11.5447L9.70912 11.4836C9.4748 11.2493 9.0949 11.2493 8.86059 11.4836C8.62628 11.718 8.62628 12.0979 8.86059 12.3322L8.92164 12.3932C9.60894 13.0805 10.7281 13.0645 11.3955 12.3579L16.9757 6.44948Z"
        fill="currentColor" />
</svg>
    