<svg viewBox="0 0 24 25" fill="none" xmlns="http://www.w3.org/2000/svg">
    <g>
        <path
            d="M9 13.5C9.55228 13.5 10 13.0523 10 12.5C10 11.9477 9.55228 11.5 9 11.5C8.44772 11.5 8 11.9477 8 12.5C8 13.0523 8.44772 13.5 9 13.5Z"
            fill="currentColor" stroke="white" stroke-linecap="round" stroke-linejoin="round" />
        <path
            d="M9 6.5C9.55228 6.5 10 6.05228 10 5.5C10 4.94772 9.55228 4.5 9 4.5C8.44772 4.5 8 4.94772 8 5.5C8 6.05228 8.44772 6.5 9 6.5Z"
            fill="currentColor" stroke="white" stroke-linecap="round" stroke-linejoin="round" />
        <path
            d="M9 20.5C9.55228 20.5 10 20.0523 10 19.5C10 18.9477 9.55228 18.5 9 18.5C8.44772 18.5 8 18.9477 8 19.5C8 20.0523 8.44772 20.5 9 20.5Z"
            fill="currentColor" stroke="white" stroke-linecap="round" stroke-linejoin="round" />
        <path
            d="M15 13.5C15.5523 13.5 16 13.0523 16 12.5C16 11.9477 15.5523 11.5 15 11.5C14.4477 11.5 14 11.9477 14 12.5C14 13.0523 14.4477 13.5 15 13.5Z"
            fill="currentColor" stroke="white" stroke-linecap="round" stroke-linejoin="round" />
        <path
            d="M15 6.5C15.5523 6.5 16 6.05228 16 5.5C16 4.94772 15.5523 4.5 15 4.5C14.4477 4.5 14 4.94772 14 5.5C14 6.05228 14.4477 6.5 15 6.5Z"
            fill="currentColor" stroke="white" stroke-linecap="round" stroke-linejoin="round" />
        <path
            d="M15 20.5C15.5523 20.5 16 20.0523 16 19.5C16 18.9477 15.5523 18.5 15 18.5C14.4477 18.5 14 18.9477 14 19.5C14 20.0523 14.4477 20.5 15 20.5Z"
            fill="currentColor" stroke="white" stroke-linecap="round" stroke-linejoin="round" />
    </g>
</svg>
    