<svg viewBox="0 0 24 24" fill="none" xmlns="http://www.w3.org/2000/svg">
    <path
        d="M10.1612 9.45412C9.96598 9.25886 9.6494 9.25886 9.45414 9.45412C9.25888 9.64939 9.25888 9.96597 9.45414 10.1612L10.1612 9.45412ZM13.8388 14.5458C14.034 14.7411 14.3506 14.7411 14.5459 14.5458C14.7411 14.3506 14.7411 14.034 14.5459 13.8387L13.8388 14.5458ZM14.5459 10.1612C14.7411 9.96597 14.7411 9.64939 14.5459 9.45412C14.3506 9.25886 14.034 9.25886 13.8388 9.45412L14.5459 10.1612ZM9.45414 13.8387C9.25888 14.034 9.25888 14.3506 9.45414 14.5458C9.6494 14.7411 9.96598 14.7411 10.1612 14.5458L9.45414 13.8387ZM9.45414 10.1612L11.6464 12.3535L12.3536 11.6464L10.1612 9.45412L9.45414 10.1612ZM11.6464 12.3535L13.8388 14.5458L14.5459 13.8387L12.3536 11.6464L11.6464 12.3535ZM13.8388 9.45412L11.6464 11.6464L12.3536 12.3535L14.5459 10.1612L13.8388 9.45412ZM11.6464 11.6464L9.45414 13.8387L10.1612 14.5458L12.3536 12.3535L11.6464 11.6464ZM18.625 12C18.625 15.6589 15.6589 18.625 12 18.625V19.625C16.2112 19.625 19.625 16.2112 19.625 12H18.625ZM12 18.625C8.34111 18.625 5.375 15.6589 5.375 12H4.375C4.375 16.2112 7.78883 19.625 12 19.625V18.625ZM5.375 12C5.375 8.34111 8.34111 5.375 12 5.375V4.375C7.78883 4.375 4.375 7.78883 4.375 12H5.375ZM12 5.375C15.6589 5.375 18.625 8.34111 18.625 12H19.625C19.625 7.78883 16.2112 4.375 12 4.375V5.375Z"
        fill="currentColor" />
</svg>
    