<svg width="17" height="16" viewBox="0 0 17 16" fill="none" xmlns="http://www.w3.org/2000/svg">
<path d="M7.71296 3.38367C9.26588 3.19861 10.8367 3.52689 12.1855 4.31837C13.5344 5.10986 14.5871 6.32106 15.183 7.76701C15.2385 7.91668 15.2385 8.08133 15.183 8.23101C14.938 8.825 14.6142 9.38334 14.2203 9.89101M9.94696 9.43834C9.56976 9.80266 9.06455 10.0042 8.54016 9.99969C8.01577 9.99513 7.51414 9.78479 7.14332 9.41398C6.77251 9.04316 6.56217 8.54154 6.55761 8.01714C6.55306 7.49275 6.75465 6.98755 7.11896 6.61034M12.2103 11.6657C11.326 12.1895 10.3393 12.517 9.3172 12.6259C8.29513 12.7349 7.2616 12.6226 6.28672 12.2969C5.31184 11.9712 4.41842 11.4396 3.6671 10.7382C2.91578 10.0367 2.32413 9.18191 1.9323 8.23167C1.87673 8.082 1.87673 7.91735 1.9323 7.76767C2.52338 6.33424 3.56341 5.13117 4.8963 4.33901M1.89096 1.33301L15.2243 14.6663" stroke="#666" stroke-width="1.33333" stroke-linecap="round" stroke-linejoin="round"/>
</svg>
