<svg width="12" height="12" viewBox="0 0 12 12" fill="none" xmlns="http://www.w3.org/2000/svg">
<g clip-path="url(#clip0_5858_194252)">
<path d="M11.2503 6.11629C11.2503 5.68463 11.2145 5.36963 11.1372 5.04297H6.10742V6.99128H9.05978C9.00028 7.47546 8.67885 8.20463 7.96455 8.6946L7.95454 8.75983L9.54485 9.96719L9.65503 9.97797C10.6669 9.06212 11.2503 7.71462 11.2503 6.11629Z" fill="#4285F4"/>
<path d="M6.10602 11.2498C7.55242 11.2498 8.76669 10.7831 9.65362 9.97812L7.96314 8.69474C7.51077 9.00391 6.90362 9.21974 6.10602 9.21974C4.68937 9.21974 3.487 8.30393 3.05839 7.03809L2.99557 7.04331L1.34194 8.2975L1.32031 8.35641C2.20125 10.0714 4.01077 11.2498 6.10602 11.2498Z" fill="#34A853"/>
<path d="M3.0595 7.03873C2.94641 6.71206 2.88095 6.36204 2.88095 6.00039C2.88095 5.6387 2.94641 5.28871 3.05355 4.96205L3.05055 4.89248L1.3762 3.61816L1.32141 3.6437C0.958335 4.35538 0.75 5.15456 0.75 6.00039C0.75 6.84622 0.958335 7.64536 1.32141 8.35704L3.0595 7.03873Z" fill="#FBBC05"/>
<path d="M6.10605 2.77999C7.11199 2.77999 7.79055 3.20582 8.17747 3.56167L9.68937 2.115C8.76082 1.26917 7.55246 0.75 6.10605 0.75C4.01079 0.75 2.20126 1.92832 1.32031 3.64331L3.05245 4.96166C3.48701 3.69583 4.68939 2.77999 6.10605 2.77999Z" fill="#EB4335"/>
</g>
<defs>
<clipPath id="clip0_5858_194252">
<rect width="12" height="12" fill="white"/>
</clipPath>
</defs>
</svg>
