<svg viewBox="0 0 21 21" fill="none" xmlns="http://www.w3.org/2000/svg">
    <g clip-path="url(#clip0_56_1878)">
        <path fill-rule="evenodd" clip-rule="evenodd"
            d="M20.1 10.8526C20.1 10.1435 20.0364 9.46167 19.9182 8.80713H10.5V12.6753H15.8818C15.65 13.9253 14.9455 14.9844 13.8864 15.6935V18.2026H17.1182C19.0091 16.4617 20.1 13.898 20.1 10.8526Z"
            fill="currentColor" />
        <path fill-rule="evenodd" clip-rule="evenodd"
            d="M10.5001 20.6251C13.2001 20.6251 15.4637 19.7297 17.1183 18.2024L13.8864 15.6933C12.991 16.2933 11.8455 16.6479 10.5001 16.6479C7.89554 16.6479 5.69099 14.8888 4.90463 12.5251H1.56372V15.1161C3.20918 18.3842 6.59099 20.6251 10.5001 20.6251Z"
            fill="currentColor" />
        <path fill-rule="evenodd" clip-rule="evenodd"
            d="M4.90455 12.5252C4.70455 11.9252 4.59091 11.2843 4.59091 10.6252C4.59091 9.9661 4.70455 9.32519 4.90455 8.72519V6.13428H1.56364C0.886364 7.48428 0.5 9.01155 0.5 10.6252C0.5 12.2388 0.886364 13.7661 1.56364 15.1161L4.90455 12.5252Z"
            fill="currentColor" />
        <path fill-rule="evenodd" clip-rule="evenodd"
            d="M10.5001 4.60252C11.9683 4.60252 13.2864 5.10706 14.3228 6.09797L17.191 3.22979C15.4592 1.61615 13.1955 0.625244 10.5001 0.625244C6.59099 0.625244 3.20918 2.86615 1.56372 6.13434L4.90463 8.72524C5.69099 6.36161 7.89554 4.60252 10.5001 4.60252Z"
            fill="currentColor" />
    </g>
    <defs>
        <clipPath id="clip0_56_1878">
            <rect width="20" height="20" fill="white" transform="translate(0.5 0.625244)" />
        </clipPath>
    </defs>
</svg>
    