<svg viewBox="0 0 92 23" fill="none" xmlns="http://www.w3.org/2000/svg">
    <path
        d="M0.140768 21.6973V0.838205H9.4694C10.9759 0.838205 12.2892 1.09894 13.4094 1.62042C14.5297 2.12258 15.3988 2.8372 16.0168 3.76427C16.6349 4.69134 16.9439 5.77292 16.9439 7.00901C16.9439 8.22579 16.6349 9.29771 16.0168 10.2248C15.3988 11.1325 14.5297 11.8472 13.4094 12.3686C12.2892 12.8708 10.9759 13.1219 9.4694 13.1219H3.67522V9.84816H9.35352C10.4158 9.84816 11.227 9.60674 11.7871 9.12389C12.3665 8.62172 12.6562 7.92642 12.6562 7.03798C12.6562 6.13023 12.3762 5.44458 11.816 4.98105C11.2559 4.4982 10.4351 4.25677 9.35352 4.25677H4.60229V21.6973H0.140768ZM11.903 21.6973L3.53036 10.8621H8.25262L17.9289 21.6973H11.903ZM26.6114 21.987C24.989 21.987 23.5598 21.6683 22.3237 21.0309C21.1069 20.3743 20.1508 19.4665 19.4555 18.3077C18.7796 17.1295 18.4416 15.7775 18.4416 14.2517C18.4416 12.7259 18.7796 11.3933 19.4555 10.2538C20.1508 9.11423 21.1069 8.22579 22.3237 7.58843C23.5598 6.95107 24.989 6.63239 26.6114 6.63239C28.253 6.63239 29.6823 6.95107 30.8991 7.58843C32.1351 8.22579 33.0912 9.11423 33.7672 10.2538C34.4432 11.3933 34.7812 12.7259 34.7812 14.2517C34.7812 15.7775 34.4335 17.1295 33.7382 18.3077C33.0622 19.4665 32.1062 20.3743 30.8701 21.0309C29.6533 21.6683 28.2337 21.987 26.6114 21.987ZM26.6114 18.5684C27.2873 18.5684 27.8957 18.3946 28.4365 18.0469C28.9966 17.6993 29.4409 17.2068 29.7692 16.5694C30.0975 15.9127 30.2617 15.1305 30.2617 14.2228C30.2617 12.8901 29.9044 11.8665 29.1898 11.1519C28.4945 10.4179 27.635 10.051 26.6114 10.051C25.5877 10.051 24.7186 10.4179 24.004 11.1519C23.3087 11.8858 22.961 12.9094 22.961 14.2228C22.961 15.1305 23.1252 15.9127 23.4535 16.5694C23.7819 17.2068 24.2164 17.6993 24.7572 18.0469C25.3173 18.3946 25.9354 18.5684 26.6114 18.5684ZM43.7171 21.987C41.5539 21.987 39.835 21.5524 38.5603 20.6833C37.2856 19.8142 36.5903 18.6167 36.4744 17.0909H40.3565C40.453 17.7476 40.7814 18.2497 41.3415 18.5974C41.9209 18.9257 42.7128 19.0899 43.7171 19.0899C44.6249 19.0899 45.2815 18.9643 45.6871 18.7133C46.112 18.4429 46.3245 18.0662 46.3245 17.5834C46.3245 17.2164 46.1989 16.9364 45.9479 16.7432C45.7161 16.5308 45.2815 16.357 44.6442 16.2218L42.2686 15.7293C40.511 15.3623 39.217 14.8118 38.3865 14.0779C37.556 13.3247 37.1407 12.359 37.1407 11.1808C37.1407 9.75159 37.6912 8.64104 38.792 7.84917C39.8929 7.03798 41.4284 6.63239 43.3984 6.63239C45.3491 6.63239 46.9039 7.02832 48.0627 7.8202C49.2216 8.59275 49.8589 9.67433 49.9748 11.0649H46.0927C46.0155 10.5628 45.7451 10.1862 45.2815 9.93507C44.818 9.66468 44.1613 9.52948 43.3115 9.52948C42.539 9.52948 41.9595 9.64536 41.5733 9.87713C41.2063 10.0896 41.0228 10.3986 41.0228 10.8042C41.0228 11.1519 41.1773 11.4319 41.4863 11.6444C41.7954 11.8375 42.3072 12.0113 43.0218 12.1658L45.6871 12.7163C47.1743 13.0253 48.2945 13.6047 49.0478 14.4545C49.8203 15.285 50.2066 16.27 50.2066 17.4096C50.2066 18.8581 49.6368 19.988 48.4973 20.7992C47.3771 21.591 45.7837 21.987 43.7171 21.987ZM59.8815 22.0159C57.9887 22.0159 56.5788 21.5621 55.6518 20.6543C54.744 19.7272 54.2901 18.327 54.2901 16.4535V3.61941L58.6358 1.99704V16.5984C58.6358 17.2551 58.8192 17.7476 59.1862 18.0759C59.5532 18.4042 60.1229 18.5684 60.8955 18.5684C61.1852 18.5684 61.4556 18.5394 61.7067 18.4815C61.9578 18.4236 62.2088 18.356 62.4599 18.2787V21.5814C62.2088 21.7166 61.8515 21.8228 61.388 21.9001C60.9438 21.9773 60.4416 22.0159 59.8815 22.0159ZM51.5379 10.2248V6.9221H62.4599V10.2248H51.5379ZM72.0875 21.987C70.4459 21.987 69.0166 21.6683 67.7999 21.0309C66.5831 20.3743 65.6367 19.4665 64.9607 18.3077C64.304 17.1488 63.9757 15.8162 63.9757 14.3097C63.9757 12.7839 64.304 11.4512 64.9607 10.3117C65.6367 9.15286 66.5734 8.25476 67.7709 7.6174C68.9683 6.96072 70.3589 6.63239 71.9427 6.63239C73.4685 6.63239 74.7915 6.94141 75.9117 7.55946C77.0319 8.1775 77.901 9.03697 78.5191 10.1379C79.1371 11.2388 79.4462 12.5328 79.4462 14.02C79.4462 14.329 79.4365 14.6187 79.4172 14.8891C79.3979 15.1402 79.3689 15.3816 79.3303 15.6134H66.5251V12.7453H75.8248L75.0716 13.2667C75.0716 12.0693 74.7818 11.1905 74.2024 10.6304C73.6423 10.051 72.8698 9.76125 71.8847 9.76125C70.7452 9.76125 69.8568 10.1475 69.2194 10.9201C68.6014 11.6926 68.2924 12.8515 68.2924 14.3966C68.2924 15.9031 68.6014 17.0233 69.2194 17.7572C69.8568 18.4912 70.8032 18.8581 72.0586 18.8581C72.7539 18.8581 73.3526 18.7422 73.8548 18.5105C74.3569 18.2787 74.7336 17.9021 74.9846 17.3806H79.0695C78.5867 18.8098 77.7562 19.9397 76.578 20.7702C75.4192 21.5814 73.9224 21.987 72.0875 21.987ZM82.3496 21.6973V6.9221H86.6083V10.3986H86.6952V21.6973H82.3496ZM86.6952 13.991L86.3186 10.4855C86.6663 9.23011 87.236 8.27407 88.0279 7.6174C88.8198 6.96072 89.8048 6.63239 90.9829 6.63239C91.3499 6.63239 91.6203 6.67102 91.7941 6.74827V10.8042C91.6975 10.7656 91.5623 10.7463 91.3885 10.7463C91.2147 10.7269 91.0022 10.7173 90.7512 10.7173C89.3606 10.7173 88.3369 10.9684 87.6802 11.4705C87.0236 11.9534 86.6952 12.7935 86.6952 13.991Z"
        fill="currentColor" />
</svg>
    