<svg viewBox="0 0 17 17" fill="none" xmlns="http://www.w3.org/2000/svg">
    <path
        d="M14.499 8.50009C14.4992 10.0775 13.8781 11.5915 12.7703 12.7145C11.6624 13.8374 10.1569 14.4789 8.57965 14.5001H8.49902C6.96667 14.5039 5.4917 13.9175 4.38027 12.8626C4.33255 12.8174 4.29418 12.7633 4.26736 12.7034C4.24054 12.6434 4.22579 12.5787 4.22397 12.5131C4.22214 12.4474 4.23326 12.382 4.2567 12.3207C4.28014 12.2593 4.31544 12.2031 4.36059 12.1554C4.40573 12.1077 4.45983 12.0693 4.5198 12.0425C4.57977 12.0157 4.64443 12.0009 4.7101 11.9991C4.77577 11.9973 4.84116 12.0084 4.90253 12.0318C4.96389 12.0553 5.02005 12.0906 5.06777 12.1357C5.78265 12.8099 6.68033 13.2585 7.64867 13.4255C8.61701 13.5924 9.61308 13.4704 10.5125 13.0745C11.4118 12.6787 12.1746 12.0266 12.7056 11.1998C13.2365 10.3729 13.512 9.40796 13.4977 8.42543C13.4834 7.4429 13.18 6.48637 12.6252 5.67532C12.0704 4.86427 11.289 4.23466 10.3785 3.86515C9.46796 3.49564 8.46875 3.40261 7.50568 3.59768C6.5426 3.79275 5.65836 4.26727 4.9634 4.96196C4.95829 4.96749 4.95287 4.9727 4.94715 4.97759L3.2859 6.50009H4.99902C5.13163 6.50009 5.25881 6.55277 5.35258 6.64654C5.44634 6.7403 5.49902 6.86748 5.49902 7.00009C5.49902 7.1327 5.44634 7.25987 5.35258 7.35364C5.25881 7.44741 5.13163 7.50009 4.99902 7.50009H1.99902C1.86642 7.50009 1.73924 7.44741 1.64547 7.35364C1.5517 7.25987 1.49902 7.1327 1.49902 7.00009V4.00009C1.49902 3.86748 1.5517 3.7403 1.64547 3.64654C1.73924 3.55277 1.86642 3.50009 1.99902 3.50009C2.13163 3.50009 2.25881 3.55277 2.35258 3.64654C2.44635 3.7403 2.49902 3.86748 2.49902 4.00009V5.86259L4.26465 4.25009C5.10464 3.41336 6.17369 2.84426 7.33685 2.61461C8.50002 2.38496 9.70515 2.50507 10.8001 2.95977C11.8951 3.41447 12.8308 4.18338 13.4891 5.16943C14.1474 6.15548 14.4988 7.31447 14.499 8.50009Z"
        fill="currentColor" />
</svg>
    