<svg viewBox="0 0 16 17" fill="none" xmlns="http://www.w3.org/2000/svg">
    <path
        d="M2 6.26123L10 6.26123M10 6.26123C10 7.3658 10.8954 8.26123 12 8.26123C13.1046 8.26123 14 7.3658 14 6.26123C14 5.15666 13.1046 4.26123 12 4.26123C10.8954 4.26123 10 5.15666 10 6.26123ZM6 11.5946L14 11.5946M6 11.5946C6 12.6991 5.10457 13.5946 4 13.5946C2.89543 13.5946 2 12.6991 2 11.5946C2 10.49 2.89543 9.59456 4 9.59456C5.10457 9.59456 6 10.49 6 11.5946Z"
        stroke="currentColor" stroke-linecap="round" stroke-linejoin="round" />
</svg>
    