<svg viewBox="0 0 25 24" fill="none" xmlns="http://www.w3.org/2000/svg">
    <g>
        <path
            d="M7.705 6.0059C7.50118 6.19221 7.48699 6.50848 7.6733 6.7123C7.85961 6.91612 8.17588 6.93031 8.3797 6.74399L7.705 6.0059ZM17.1938 18.61C17.4194 18.4507 17.4732 18.1387 17.314 17.9131C17.1547 17.6875 16.8427 17.6337 16.6171 17.793L17.1938 18.61ZM12.8322 18.9996C9.12542 18.9996 6.09082 15.8823 6.09082 11.9998H5.09082C5.09082 16.4013 8.54038 19.9996 12.8322 19.9996V18.9996ZM12.8322 5C16.539 5 19.5736 8.11724 19.5736 11.9998H20.5736C20.5736 7.5983 17.124 4 12.8322 4V5ZM8.3797 6.74399C9.56928 5.65658 11.1274 5 12.8322 5V4C10.864 4 9.06848 4.75952 7.705 6.0059L8.3797 6.74399ZM16.6171 17.793C15.5372 18.5553 14.2348 18.9996 12.8322 18.9996V19.9996C14.4503 19.9996 15.9527 19.4861 17.1938 18.61L16.6171 17.793ZM19.5736 11.9998V14.6789H20.5736V11.9998H19.5736ZM6.09082 11.9998V10.3117H5.09082V11.9998H6.09082Z"
            fill="currentColor" />
        <path d="M17.9365 12L20.074 14.85L22.2115 12" stroke="currentColor" stroke-linecap="round"
            stroke-linejoin="round" />
        <path d="M7.72852 12.8057L5.59102 9.95566L3.45352 12.8057" stroke="currentColor"
            stroke-linecap="round" stroke-linejoin="round" />
    </g>
</svg>
    