<svg viewBox="0 0 33 32" fill="none" xmlns="http://www.w3.org/2000/svg">
    <path
        d="M20.9419 20.2726C23.2148 20.2726 25.0839 20.1463 25.6914 19.7402C25.9756 19.5502 26.248 19.0378 26.2191 18.6754C26.2191 16.33 22.2942 16.33 22.2942 16.33C22.2942 16.33 22.2942 16.33 22.2942 16.33H20.9794C20.9544 16.33 20.9298 16.3303 20.9048 16.3311C20.5327 16.3443 17.4868 16.4829 17.4052 17.5058M24.1082 11.2217C24.1082 12.3978 23.1631 13.3513 21.9973 13.3513C20.8315 13.3513 19.8864 12.3978 19.8864 11.2217C19.8864 10.0455 20.8315 9.09204 21.9973 9.09204C23.1631 9.09204 24.1082 10.0455 24.1082 11.2217ZM17.1725 11.3599C17.1725 13.2158 15.6812 14.7203 13.8417 14.7203C12.0021 14.7203 10.5109 13.2158 10.5109 11.3599C10.5109 9.50401 12.0021 7.99951 13.8417 7.99951C15.6812 7.99951 17.1725 9.50401 17.1725 11.3599ZM19.9649 22.4942C19.0831 23.0837 17.1822 23.9996 13.8828 23.9996C10.5834 23.9996 8.68244 23.0837 7.80063 22.4942C7.38801 22.2183 7.18463 21.7105 7.2266 21.1843C7.27264 20.6071 7.43224 20.0304 7.61639 19.5308C7.9753 18.557 8.96271 18.0255 10.0005 18.0255H17.7651C18.8029 18.0255 19.7903 18.557 20.1492 19.5308C20.3333 20.0304 20.4929 20.6071 20.539 21.1843C20.5809 21.7105 20.3776 22.2183 19.9649 22.4942Z"
        stroke="currentColor" stroke-width="1.2" stroke-linecap="round" stroke-linejoin="round" />
</svg>
    