<svg viewBox="0 0 25 25" fill="none" xmlns="http://www.w3.org/2000/svg">
    <path
        d="M15.7879 9.0912C15.7879 10.9074 14.3156 12.3797 12.4994 12.3797C10.6832 12.3797 9.21095 10.9074 9.21095 9.0912C9.21095 7.27503 10.6832 5.80273 12.4994 5.80273C14.3156 5.80273 15.7879 7.27503 15.7879 9.0912Z"
        stroke="currentColor" />
    <path
        d="M12.4994 20.0527C15.7569 20.0527 17.6337 19.2125 18.5043 18.6717C18.9116 18.4186 19.1124 17.9526 19.071 17.4699C19.0144 16.8107 18.7841 16.1523 18.5495 15.63C18.2416 14.9443 17.5288 14.572 16.7771 14.572H8.22168C7.47001 14.572 6.7572 14.9443 6.44927 15.63C6.21474 16.1523 5.9844 16.8107 5.92782 17.4699C5.88639 17.9526 6.08718 18.4186 6.49456 18.6717C7.36516 19.2125 9.24193 20.0527 12.4994 20.0527Z"
        stroke="currentColor" />
</svg>
    