<svg width="18" height="19" viewBox="0 0 18 19" fill="none" xmlns="http://www.w3.org/2000/svg">
    <g clip-path="url(#clip0_6527_33146)">
        <path
                fill-rule="evenodd"
                clip-rule="evenodd"
                d="M10.002 3.51792C9.44926 2.96584 8.55381 2.96584 8.00112 3.51792C8.5532 2.96523 8.5532 2.06978 8.00112 1.51709C8.55381 2.06917 9.44926 2.06917 10.002 1.51709C9.44987 2.06978 9.44987 2.96523 10.002 3.51792Z"
                stroke="currentColor"
                stroke-width="1.5"
                stroke-linecap="round"
                stroke-linejoin="round"
        />
        <path
                fill-rule="evenodd"
                clip-rule="evenodd"
                d="M2.99805 3.51792C2.44535 2.96584 1.54991 2.96584 0.997214 3.51792C1.54929 2.96523 1.54929 2.06978 0.997214 1.51709C1.54991 2.06917 2.44535 2.06917 2.99805 1.51709C2.44597 2.06978 2.44597 2.96523 2.99805 3.51792Z"
                stroke="currentColor"
                stroke-width="1.5"
                stroke-linecap="round"
                stroke-linejoin="round"
        />
        <path
                fill-rule="evenodd"
                clip-rule="evenodd"
                d="M9.00011 7.39709C8.41433 6.8113 7.46414 6.81174 6.87835 7.39753V7.39753C6.29256 7.98331 6.29212 8.9335 6.87791 9.51929L14.4423 17.0837C15.0281 17.6695 15.9783 17.6691 16.5641 17.0833V17.0833C17.1499 16.4975 17.1503 15.5473 16.5645 14.9615L9.00011 7.39709Z"
                stroke="currentColor"
                stroke-width="1.5"
                stroke-linecap="round"
                stroke-linejoin="round"
        />
        <path
                fill-rule="evenodd"
                clip-rule="evenodd"
                d="M2.99805 10.5209C2.44535 9.96877 1.54991 9.96877 0.997214 10.5209C1.54929 9.96816 1.54929 9.07271 0.997214 8.52002C1.54991 9.0721 2.44535 9.0721 2.99805 8.52002C2.44597 9.07271 2.44597 9.96816 2.99805 10.5209Z"
                stroke="currentColor"
                stroke-width="1.5"
                stroke-linecap="round"
                stroke-linejoin="round"
        />
    </g>
    <defs>
        <clipPath id="clip0_6527_33146">
            <rect width="18" height="18" fill="white" transform="matrix(-1 0 0 1 18 0.520264)" />
        </clipPath>
    </defs>
</svg>
