<svg viewBox="0 0 20 21" fill="none" xmlns="http://www.w3.org/2000/svg">
    <path
        d="M16.6654 9.2513V6.16797C16.6654 4.76784 16.6654 4.06777 16.3929 3.53299C16.1532 3.06259 15.7707 2.68014 15.3003 2.44045C14.7656 2.16797 14.0655 2.16797 12.6654 2.16797H7.33203C5.9319 2.16797 5.23183 2.16797 4.69706 2.44045C4.22665 2.68014 3.8442 3.06259 3.60451 3.53299C3.33203 4.06777 3.33203 4.76784 3.33203 6.16797V14.8346C3.33203 16.2348 3.33203 16.9348 3.60451 17.4696C3.8442 17.94 4.22665 18.3225 4.69706 18.5622C5.23183 18.8346 5.9319 18.8346 7.33203 18.8346H9.9987M14.9987 18.0013V13.0013M12.4987 15.5013H17.4987"
        stroke="currentColor" stroke-width="1.66667" stroke-linecap="round" stroke-linejoin="round" />
</svg>
    