<svg width="20" height="20" viewBox="0 0 20 20" fill="none" xmlns="http://www.w3.org/2000/svg">
<path d="M7.57484 7.50033C7.77076 6.94338 8.15746 6.47375 8.66647 6.1746C9.17547 5.87546 9.77392 5.76611 10.3558 5.86592C10.9377 5.96573 11.4655 6.26826 11.8457 6.71993C12.226 7.1716 12.4341 7.74326 12.4332 8.33366C12.4332 10.0003 9.93317 10.8337 9.93317 10.8337M9.99984 14.167H10.0082M18.3332 10.0003C18.3332 14.6027 14.6022 18.3337 9.99984 18.3337C5.39746 18.3337 1.6665 14.6027 1.6665 10.0003C1.6665 5.39795 5.39746 1.66699 9.99984 1.66699C14.6022 1.66699 18.3332 5.39795 18.3332 10.0003Z" stroke="#85888E" stroke-width="1.33333" stroke-linecap="round" stroke-linejoin="round"/>
</svg>
