<svg width="33" height="33" viewBox="0 0 33 33" fill="none" xmlns="http://www.w3.org/2000/svg">
    <path
        d="M6.91016 16.8069H7.51016H6.91016ZM6.91016 24.3271H6.31016H6.91016ZM24.4486 25.7832V25.1832V25.7832ZM8.37169 25.7832V26.3832H8.37169L8.37169 25.7832ZM25.9102 16.807H25.3102H25.9102ZM25.9102 24.3271H26.5102H25.9102ZM25.1368 14.8336L24.6963 15.241V15.241L25.1368 14.8336ZM18.5598 7.72208L18.1194 8.12946L18.5598 7.72208ZM14.2605 7.72207L14.701 8.12945L14.2605 7.72207ZM7.68354 14.8336L7.24304 14.4262H7.24304L7.68354 14.8336ZM13.4871 18.5026H14.0871H14.0871H13.4871ZM13.4871 25.0551H12.8871H13.4871ZM18.6025 25.7832V25.1832V25.7832ZM14.2178 25.7832V26.3832V25.7832ZM19.3332 18.5027L19.9332 18.5027V18.5027H19.3332ZM19.3332 25.0551H18.7332H19.3332ZM18.6025 17.7746L18.6025 18.3746L18.6025 17.7746ZM14.2179 17.7746L14.2178 18.3746H14.2178L14.2179 17.7746ZM6.31016 16.8069L6.31016 24.3271H7.51016L7.51016 16.8069H6.31016ZM24.4486 25.1832L8.37169 25.1832L8.37169 26.3832L24.4486 26.3832V25.1832ZM25.3102 16.807V24.3271H26.5102V16.807H25.3102ZM25.5773 14.4262L19.0003 7.31469L18.1194 8.12946L24.6963 15.241L25.5773 14.4262ZM13.82 7.31469L7.24304 14.4262L8.12404 15.241L14.701 8.12945L13.82 7.31469ZM19.0003 7.31469C17.6051 5.80604 15.2152 5.80604 13.82 7.31469L14.701 8.12945C15.6212 7.13445 17.1991 7.13445 18.1194 8.12946L19.0003 7.31469ZM26.5102 16.807C26.5102 15.9245 26.1769 15.0746 25.5773 14.4262L24.6963 15.241C25.0912 15.6681 25.3102 16.2271 25.3102 16.807H26.5102ZM7.51016 16.8069C7.51016 16.2271 7.72908 15.668 8.12404 15.241L7.24304 14.4262C6.64339 15.0746 6.31016 15.9244 6.31016 16.8069H7.51016ZM6.31016 24.3271C6.31016 25.4648 7.23524 26.3832 8.37169 26.3832V25.1832C7.89377 25.1832 7.51016 24.7978 7.51016 24.3271H6.31016ZM24.4486 26.3832C25.5851 26.3832 26.5102 25.4648 26.5102 24.3271H25.3102C25.3102 24.7978 24.9265 25.1832 24.4486 25.1832V26.3832ZM12.8871 18.5026L12.8871 25.0551H14.0871L14.0871 18.5026H12.8871ZM18.6025 25.1832H14.2178V26.3832H18.6025V25.1832ZM18.7332 18.5027L18.7332 25.0551H19.9332L19.9332 18.5027L18.7332 18.5027ZM18.6025 17.1746L14.2179 17.1746L14.2178 18.3746L18.6025 18.3746L18.6025 17.1746ZM19.9332 18.5027C19.9332 17.7671 19.3353 17.1746 18.6025 17.1746L18.6025 18.3746C18.6768 18.3746 18.7332 18.434 18.7332 18.5027H19.9332ZM14.0871 18.5026C14.0871 18.434 14.1435 18.3746 14.2178 18.3746L14.2179 17.1746C13.485 17.1746 12.8871 17.7671 12.8871 18.5026H14.0871ZM12.8871 25.0551C12.8871 25.7907 13.485 26.3832 14.2178 26.3832V25.1832C14.1435 25.1832 14.0871 25.1238 14.0871 25.0551H12.8871ZM18.6025 26.3832C19.3353 26.3832 19.9332 25.7907 19.9332 25.0551H18.7332C18.7332 25.1238 18.6768 25.1832 18.6025 25.1832V26.3832Z"
        fill="currentColor" />
</svg>
    