<svg viewBox="0 0 19 19" fill="none" xmlns="http://www.w3.org/2000/svg">
    <path
        d="M15.6721 8.81382C15.6508 8.72367 15.6076 8.64017 15.5463 8.57074C15.485 8.50132 15.4074 8.44811 15.3206 8.41586L11.2699 6.8964L12.3007 1.74039C12.324 1.62059 12.3077 1.49645 12.2543 1.3867C12.2009 1.27695 12.1133 1.18755 12.0046 1.13199C11.896 1.07642 11.7722 1.05771 11.6519 1.07867C11.5317 1.09964 11.4215 1.15914 11.3381 1.2482L3.46308 9.6857C3.39912 9.75309 3.35286 9.83528 3.32841 9.92492C3.30397 10.0146 3.30211 10.1089 3.323 10.1994C3.34389 10.2899 3.38688 10.3739 3.44814 10.4437C3.50939 10.5136 3.587 10.5672 3.67402 10.5998L7.72613 12.1192L6.69816 17.2696C6.67482 17.3894 6.69108 17.5135 6.74448 17.6233C6.79788 17.733 6.88553 17.8224 6.9942 17.878C7.10287 17.9336 7.22666 17.9523 7.3469 17.9313C7.46713 17.9104 7.57729 17.8509 7.66074 17.7618L15.5357 9.32429C15.5985 9.25688 15.6438 9.17508 15.6676 9.08607C15.6914 8.99706 15.693 8.90357 15.6721 8.81382ZM8.18949 15.5519L8.92566 11.8689C8.95201 11.7383 8.93113 11.6026 8.86675 11.4859C8.80237 11.3692 8.69866 11.2792 8.5741 11.2319L4.85879 9.83617L10.8086 3.46164L10.0732 7.14461C10.0468 7.27522 10.0677 7.41095 10.1321 7.52762C10.1965 7.64428 10.3002 7.7343 10.4247 7.78164L14.1372 9.17382L8.18949 15.5519Z"
        fill="currentColor" />
    <path
        d="M8.18949 15.5519L8.92566 11.8689C8.95201 11.7383 8.93113 11.6026 8.86675 11.4859C8.80237 11.3692 8.69866 11.2792 8.5741 11.2319L4.85879 9.83617L10.8086 3.46164L10.0732 7.14461C10.0468 7.27522 10.0677 7.41095 10.1321 7.52762C10.1965 7.64428 10.3002 7.7343 10.4247 7.78164L14.1372 9.17382L8.18949 15.5519Z"
        fill="currentColor" />
</svg>
    