<svg viewBox="0 0 60 59" fill="none" xmlns="http://www.w3.org/2000/svg">
    <path fill-rule="evenodd" clip-rule="evenodd"
        d="M22.9063 26.9982C23.2236 26.998 23.3825 26.6145 23.1582 26.39L7.67852 10.8987C7.53947 10.7595 7.53951 10.534 7.67861 10.3949L10.7368 7.3367C10.8759 7.1976 11.1015 7.19755 11.2406 7.3366L26.7322 22.8161C26.9567 23.0404 27.3402 22.8815 27.3404 22.5642L27.3488 0.664508C27.3488 0.467785 27.5083 0.30835 27.705 0.30835H32.03C32.2268 0.30835 32.3863 0.467785 32.3863 0.664508L32.3947 22.5642C32.3948 22.8815 32.7784 23.0404 33.0029 22.8161L48.4945 7.3366C48.6336 7.19755 48.8591 7.1976 48.9982 7.3367L52.0565 10.3949C52.1956 10.534 52.1956 10.7595 52.0566 10.8987L36.5769 26.39C36.3526 26.6145 36.5115 26.998 36.8287 26.9982L58.7288 27.0066C58.9255 27.0066 59.0849 27.1661 59.0849 27.3628V31.6878C59.0849 31.8845 58.9255 32.044 58.7288 32.0441L36.8287 32.0525C36.5115 32.0526 36.3526 32.4361 36.5769 32.6606L52.0566 48.1519C52.1956 48.2911 52.1956 48.5166 52.0565 48.6557L48.9982 51.7139C48.8591 51.853 48.6336 51.8531 48.4945 51.714L33.0029 36.2345C32.7784 36.0102 32.3948 36.1691 32.3947 36.4864L32.3863 58.3861C32.3863 58.5828 32.2268 58.7423 32.03 58.7423H27.705C27.5083 58.7423 27.3488 58.5828 27.3488 58.3861L27.3404 36.4864C27.3402 36.1691 26.9567 36.0102 26.7322 36.2345L11.2406 51.714C11.1015 51.8531 10.8759 51.853 10.7368 51.7139L7.67861 48.6557C7.53951 48.5166 7.53947 48.2911 7.67852 48.1519L23.1582 32.6606C23.3825 32.4361 23.2236 32.0526 22.9063 32.0525L1.0063 32.0441C0.809582 32.044 0.650146 31.8845 0.650146 31.6878V27.3628C0.650146 27.1661 0.809583 27.0066 1.00631 27.0066L22.9063 26.9982Z"
        fill="currentColor" />
</svg>
    