<svg viewBox="0 0 33 33" fill="none" xmlns="http://www.w3.org/2000/svg">
    <path fill-rule="evenodd" clip-rule="evenodd"
        d="M12.3726 15.4468C12.5469 15.4467 12.6342 15.236 12.511 15.1126L4.0064 6.60159C3.93001 6.52514 3.93003 6.40124 4.00645 6.32482L5.68664 4.64463C5.76307 4.5682 5.88697 4.56818 5.96342 4.64457L14.4745 13.1491C14.5978 13.2723 14.8085 13.185 14.8086 13.0107L14.8132 0.978878C14.8133 0.870797 14.9009 0.783203 15.009 0.783203H17.3851C17.4932 0.783203 17.5808 0.870798 17.5809 0.978878L17.5855 13.0107C17.5855 13.185 17.7963 13.2723 17.9196 13.1491L26.4307 4.64457C26.5071 4.56818 26.631 4.5682 26.7074 4.64463L28.3876 6.32482C28.464 6.40124 28.4641 6.52514 28.3877 6.60159L19.8831 15.1126C19.7599 15.236 19.8472 15.4467 20.0215 15.4468L32.0534 15.4514C32.1615 15.4514 32.2491 15.539 32.2491 15.6471V18.0233C32.2491 18.1313 32.1615 18.219 32.0534 18.219L20.0215 18.2236C19.8472 18.2237 19.7599 18.4344 19.8831 18.5577L28.3877 27.0688C28.4641 27.1452 28.464 27.2691 28.3876 27.3456L26.7074 29.0258C26.631 29.1022 26.5071 29.1022 26.4307 29.0258L17.9196 20.5213C17.7963 20.398 17.5855 20.4853 17.5855 20.6597L17.5809 32.6915C17.5808 32.7996 17.4932 32.8872 17.3851 32.8872H15.009C14.9009 32.8872 14.8133 32.7996 14.8132 32.6915L14.8086 20.6597C14.8085 20.4853 14.5978 20.398 14.4745 20.5213L5.96342 29.0258C5.88697 29.1022 5.76306 29.1022 5.68664 29.0258L4.00645 27.3456C3.93003 27.2691 3.93001 27.1452 4.0064 27.0688L12.511 18.5577C12.6342 18.4344 12.5469 18.2237 12.3726 18.2236L0.340694 18.219C0.232614 18.219 0.14502 18.1313 0.14502 18.0233V15.6471C0.14502 15.539 0.232614 15.4514 0.340694 15.4514L12.3726 15.4468Z"
        fill="currentColor" />
</svg>
    