<svg width="11" height="10" viewBox="0 0 11 10" fill="none" xmlns="http://www.w3.org/2000/svg">
    <path fill-rule="evenodd" clip-rule="evenodd"
          d="M10.1583 8.74195C10.3771 8.52316 10.5 8.22641 10.5 7.91699V2.08366C10.5 1.77424 10.3771 1.47749 10.1583 1.2587C9.9395 1.03991 9.64275 0.916992 9.33333 0.916992H1.16667C0.857247 0.916992 0.560501 1.03991 0.341709 1.2587C0.122916 1.47749 0 1.77424 0 2.08366V9.08366H2.33333H9.33333C9.64275 9.08366 9.9395 8.96074 10.1583 8.74195ZM2.58333 3.16699C2.26117 3.16699 2 3.42816 2 3.75033C2 4.07249 2.26117 4.33366 2.58333 4.33366H6.08333C6.4055 4.33366 6.66667 4.07249 6.66667 3.75033C6.66667 3.42816 6.4055 3.16699 6.08333 3.16699H2.58333ZM2.58333 5.50033C2.26117 5.50033 2 5.76149 2 6.08366C2 6.40583 2.26117 6.66699 2.58333 6.66699H8.41667C8.73883 6.66699 9 6.40583 9 6.08366C9 5.76149 8.73883 5.50033 8.41667 5.50033H2.58333Z"
          fill="#D6FE50"/>
</svg>
