<svg viewBox="0 0 20 20" fill="none" xmlns="http://www.w3.org/2000/svg">
    <path
        d="M10 14.5833H10.0083M6.83333 18.3333H13.1667C14.1001 18.3333 14.5668 18.3333 14.9233 18.1517C15.2369 17.9919 15.4919 17.7369 15.6517 17.4233C15.8333 17.0668 15.8333 16.6001 15.8333 15.6667V4.33333C15.8333 3.39991 15.8333 2.9332 15.6517 2.57668C15.4919 2.26308 15.2369 2.00811 14.9233 1.84832C14.5668 1.66666 14.1001 1.66666 13.1667 1.66666H6.83333C5.89991 1.66666 5.4332 1.66666 5.07668 1.84832C4.76308 2.00811 4.50811 2.26308 4.34832 2.57668C4.16667 2.9332 4.16667 3.39991 4.16667 4.33333V15.6667C4.16667 16.6001 4.16667 17.0668 4.34832 17.4233C4.50811 17.7369 4.76308 17.9919 5.07668 18.1517C5.4332 18.3333 5.89991 18.3333 6.83333 18.3333ZM10.4167 14.5833C10.4167 14.8135 10.2301 15 10 15C9.76988 15 9.58333 14.8135 9.58333 14.5833C9.58333 14.3532 9.76988 14.1667 10 14.1667C10.2301 14.1667 10.4167 14.3532 10.4167 14.5833Z"
        stroke="currentColor" stroke-width="1.66667" stroke-linecap="round" stroke-linejoin="round" />
</svg>
    